<svg width="319" height="219" viewBox="0 0 319 219" fill="none" xmlns="http://www.w3.org/2000/svg">
<path d="M197.17 214L241.099 115.972L241.979 114.007L241.156 112.017L196.927 5L266.052 5L313.51 113.843L266.159 214L197.17 214Z" stroke="#353332" stroke-opacity="0.71" stroke-width="10"/>
<path d="M48.9697 214L74.916 115.197L75.2373 113.977L74.9395 112.75L48.8428 5H85.4131L113.232 113.876L85.4932 214H48.9697Z" stroke="#353332" stroke-opacity="0.71" stroke-width="10"/>
<path d="M109.838 214L150.049 115.822L150.795 114.001L150.1 112.16L109.62 5H172.003L215.38 113.85L172.106 214H109.838Z" stroke="#353332" stroke-opacity="0.71" stroke-width="10"/>
<rect x="25.9446" y="217.433" width="3.13428" height="215.866" transform="rotate(-180 25.9446 217.433)" stroke="#353332" stroke-opacity="0.71" stroke-width="3.13428"/>
<rect x="4.70044" y="217.433" width="3.13428" height="215.866" transform="rotate(-180 4.70044 217.433)" stroke="#353332" stroke-opacity="0.71" stroke-width="3.13428"/>
</svg>
